<svg width="56" height="56" viewBox="0 0 56 56" fill="none" xmlns="http://www.w3.org/2000/svg">
<g clip-path="url(#clip0)">
<path d="M28.32 55.12C43.1212 55.12 55.12 43.1212 55.12 28.32C55.12 13.5188 43.1212 1.52 28.32 1.52C13.5188 1.52 1.52 13.5188 1.52 28.32C1.52 43.1212 13.5188 55.12 28.32 55.12Z" fill="black" stroke="black" stroke-width="2"/>
<path d="M27.92 40.32C31.6755 40.32 34.72 37.2755 34.72 33.52C34.72 29.7645 31.6755 26.72 27.92 26.72C24.1645 26.72 21.12 29.7645 21.12 33.52C21.12 37.2755 24.1645 40.32 27.92 40.32Z" fill="white" stroke="white" stroke-width="3"/>
<path d="M8.6632 23.9968C8.688 23.2032 8.5392 23.0544 7.74561 23.0792H7.17521C6.38161 23.0544 6.23281 23.2032 6.25761 23.9968V38.2816C6.23281 39.0504 6.40641 39.224 7.17521 39.1992H7.74561C8.5144 39.224 8.688 39.0504 8.6632 38.2816V32.3544C9.68 33.396 10.6224 33.8424 11.9368 33.8424C14.7392 33.8424 16.8472 31.4864 16.8472 28.3616C16.8472 25.1624 14.7392 22.8064 11.8872 22.8064C10.6224 22.8064 9.68 23.228 8.6632 24.22V23.9968ZM11.4904 24.964C13.152 24.964 14.392 26.3776 14.392 28.2624C14.392 30.2464 13.1768 31.6848 11.5152 31.6848C9.7296 31.6848 8.5144 30.3208 8.5144 28.3368C8.5144 26.328 9.7048 24.964 11.4904 24.964ZM47.1596 32.6024C47.1348 33.396 47.2836 33.5448 48.0772 33.52H48.6476C49.4412 33.5448 49.59 33.396 49.5652 32.6024V16.3336C49.59 15.5648 49.4412 15.3912 48.6476 15.416H48.0772C47.2836 15.3912 47.1348 15.5648 47.1596 16.3336V24.2944C46.118 23.228 45.2004 22.8064 43.886 22.8064C41.0836 22.8064 38.9756 25.1624 38.9756 28.2872C38.9756 31.4864 41.0836 33.8424 43.9356 33.8424C45.2004 33.8424 46.1428 33.4208 47.1596 32.4288V32.6024ZM44.3076 24.964C46.0932 24.964 47.3084 26.328 47.3084 28.312C47.3084 30.3208 46.0932 31.6848 44.3324 31.6848C42.6708 31.6848 41.4308 30.2712 41.4308 28.3864C41.4308 26.3776 42.6212 24.964 44.3076 24.964Z" fill="white"/>
<path d="M17.92 33.92C25.92 37.12 29.52 37.12 37.52 33.92" stroke="black" stroke-width="2.5"/>
</g>
<defs>
<clipPath id="clip0">
<rect width="56" height="56" fill="white"/>
</clipPath>
</defs>
</svg>
